# xmcd CD database file
#
# Track frame offsets:
#	150
#	15901
#	30412
#	46649
#	63999
#	78317
#	93320
#	106642
#	120447
#	134687
#	151117
#
# Disc length: 2250 seconds
#
# Revision: 3
# Processed by: cddbd v1.5.2PL0 Copyright (c) Steve Scherf et al.
# Submitted via: CDex 1.51
#
DISCID=6e08c80b
DTITLE=Cam - Untamed
DYEAR=2015
DGENRE=Country
TTITLE0=Untamed
TTITLE1=Hungover On Heartache
TTITLE2=Mayday
TTITLE3=Burning House
TTITLE4=Cold In California
TTITLE5=My Mistake
TTITLE6=Runaway Train
TTITLE7=Half Broke Heart
TTITLE8=Want It All
TTITLE9=Country Ain't Never Been Pretty
TTITLE10=Village
EXTD=This Is Awesome!!!!  Great Woman and Artist!!! YEAR: 2015
EXTT0=
EXTT1=
EXTT2=
EXTT3=
EXTT4=
EXTT5=
EXTT6=
EXTT7=
EXTT8=
EXTT9=
EXTT10=
PLAYORDER=
